<?xml version="1.0" standalone="no"?>
<!DOCTYPE svg PUBLIC "-//W3C//DTD SVG 20010904//EN"
 "http://www.w3.org/TR/2001/REC-SVG-20010904/DTD/svg10.dtd">
<svg version="1.0" xmlns="http://www.w3.org/2000/svg"
 width="406.000000pt" height="406.000000pt" viewBox="0 0 406.000000 406.000000"
 preserveAspectRatio="xMidYMid meet">
<metadata>
Created by potrace 1.11, written by Peter Selinger 2001-2013
</metadata>
<g transform="translate(0.000000,406.000000) scale(0.100000,-0.100000)"
fill="#000000" stroke="none">
<path d="M3207 3044 c-1 -1 -36 -4 -77 -8 -115 -9 -149 -16 -230 -42 -93 -32
-197 -84 -276 -138 l-60 -43 -31 36 -30 36 -138 3 c-230 6 -235 3 -284 -180
-57 -213 -78 -289 -116 -433 -43 -158 -56 -189 -86 -206 -65 -34 -128 -12
-159 54 -11 23 -68 190 -126 371 -82 251 -114 337 -135 360 l-27 31 -134 3
c-151 4 -186 -6 -211 -62 -8 -17 -47 -130 -87 -251 -167 -509 -166 -506 -227
-521 -33 -9 -92 16 -114 46 -10 14 -59 180 -109 370 -50 190 -99 356 -109 370
-31 44 -57 50 -204 50 -106 0 -147 -4 -172 -16 -42 -20 -69 -73 -60 -117 4
-18 61 -212 127 -432 65 -220 128 -431 139 -470 12 -38 25 -81 30 -95 9 -27
108 -360 141 -475 13 -45 30 -81 49 -100 l29 -30 195 0 195 0 29 30 c22 24 50
93 131 335 56 168 109 319 117 337 29 64 125 79 174 27 18 -19 76 -165 94
-234 2 -8 36 -110 75 -227 77 -226 94 -257 153 -266 18 -3 99 -5 181 -6 161 0
203 9 229 51 8 12 38 102 67 198 28 96 59 199 69 228 l17 53 24 -58 c116 -283
377 -511 675 -588 101 -26 135 -30 270 -29 152 0 184 5 296 40 162 51 301 134
420 253 93 94 121 134 122 177 1 41 -27 71 -100 109 -21 10 -49 27 -63 36 -65
43 -151 81 -173 75 -12 -3 -57 -39 -99 -80 -179 -173 -422 -219 -642 -122
-160 71 -291 232 -330 405 -80 360 215 712 582 696 90 -4 114 -9 186 -36 76
-28 162 -87 224 -152 29 -31 62 -59 73 -62 23 -8 102 28 234 107 153 91 151
123 -25 298 -154 154 -349 251 -560 279 -108 14 -149 18 -153 15z"/>
<path d="M3218 2348 c-14 -11 -42 -122 -74 -293 -2 -11 -19 -93 -38 -182 -33
-158 -33 -162 -15 -179 34 -31 47 -7 74 137 3 13 27 129 54 258 36 169 47 240
40 253 -11 21 -20 22 -41 6z"/>
<path d="M2895 2175 c-38 -24 -98 -60 -132 -80 -76 -44 -93 -60 -93 -90 0 -19
25 -39 145 -114 80 -50 153 -91 164 -91 19 0 34 31 25 54 -5 13 -8 15 -143 97
l-93 58 45 28 c25 15 77 47 115 71 70 44 91 74 70 99 -16 20 -27 16 -103 -32z"/>
<path d="M3343 2213 c-19 -7 -16 -48 5 -65 9 -8 64 -43 121 -78 84 -52 100
-65 85 -71 -10 -4 -64 -36 -119 -71 -90 -57 -100 -67 -100 -93 0 -22 5 -31 20
-33 23 -3 292 163 309 190 18 29 -2 47 -150 140 -138 87 -148 91 -171 81z"/>
</g>
</svg>
