<svg id="Layer_1" data-name="Layer 1" xmlns="http://www.w3.org/2000/svg" viewBox="0 0 405.01 203.97"><defs><style>.cls-1{fill:#1f2359;}.cls-2,.cls-3{fill:#dc1f26;}.cls-3{stroke:#dc1f26;stroke-miterlimit:10;stroke-width:2px;}</style></defs><path class="cls-1" d="M285,283.48a101.87,101.87,0,0,1,36.9-76.91A11.25,11.25,0,0,0,311,198.22H287.68a11.28,11.28,0,0,0-10.89,8.37l-17.89,67c-2.89,10.83-18.11,11.26-21.61.61L214.87,206a11.27,11.27,0,0,0-10.71-7.76H184.61A11.27,11.27,0,0,0,173.9,206l-22.43,68.24c-3.5,10.65-18.71,10.22-21.6-.61l-17.89-67a11.28,11.28,0,0,0-10.9-8.37H77.72a11.28,11.28,0,0,0-10.8,14.5l45,150.87a11.28,11.28,0,0,0,10.81,8.05h29.51A11.28,11.28,0,0,0,162.94,364l20.76-61.32a11.28,11.28,0,0,1,21.36,0L225.83,364a11.28,11.28,0,0,0,10.68,7.66H266a11.28,11.28,0,0,0,10.81-8.05l13.63-45.69A101.86,101.86,0,0,1,285,283.48Z" transform="translate(-66.44 -182.94)"/><path class="cls-1" d="M467.28,332.26l-24-13.83a8.26,8.26,0,0,0-10.66,2.09,57.9,57.9,0,1,1-.05-71.25,8.32,8.32,0,0,0,10.72,2.16l23.91-13.81a8.37,8.37,0,0,0,2.62-12.14,101.75,101.75,0,0,0-147.94-18.91,11.29,11.29,0,0,1-.07,6.15L290.46,317.9a102,102,0,0,0,179.43,26.44A8.35,8.35,0,0,0,467.28,332.26Z" transform="translate(-66.44 -182.94)"/><path class="cls-2" d="M321.92,206.57A101.84,101.84,0,0,0,290.46,317.9l31.39-105.18A11.29,11.29,0,0,0,321.92,206.57Z" transform="translate(-66.44 -182.94)"/><path class="cls-3" d="M350.75,287,373.31,301a6.75,6.75,0,0,1,1.94,1.71,3.65,3.65,0,0,1,.05,3.9,1.76,1.76,0,0,1-1.49.74,2.8,2.8,0,0,1-1-.2,9.49,9.49,0,0,1-1.47-.83L346.9,291a1.2,1.2,0,0,1-.3-.17q-2.84-1.72-2.84-3.79c0-1.37.93-2.61,2.77-3.71l.37-.25,24.48-15a7.77,7.77,0,0,1,1.41-.76,2.93,2.93,0,0,1,1-.23,1.77,1.77,0,0,1,1.49.7,3,3,0,0,1,.54,1.9,3.38,3.38,0,0,1-.59,2,6.28,6.28,0,0,1-1.94,1.67Z" transform="translate(-66.44 -182.94)"/><path class="cls-3" d="M389.35,314.94a9.9,9.9,0,0,1-.91,2.94,1.81,1.81,0,0,1-1.33.92,1.89,1.89,0,0,1-1.6-.65,3.26,3.26,0,0,1-.9-1.94,3.87,3.87,0,0,1,0-.77c0-.3.07-.61.13-.95l12-57.43a12,12,0,0,1,1-3.05,1.73,1.73,0,0,1,1.31-.94,1.93,1.93,0,0,1,1.66.62,3.11,3.11,0,0,1,.89,1.88,4.5,4.5,0,0,1,0,.75,4.18,4.18,0,0,1-.13.8Z" transform="translate(-66.44 -182.94)"/><path class="cls-3" d="M434.9,287l-22.5-13.76a6.58,6.58,0,0,1-2-1.72,3.26,3.26,0,0,1-.58-1.91,3.1,3.1,0,0,1,.53-1.9,1.75,1.75,0,0,1,1.47-.7,2.89,2.89,0,0,1,1,.23,9.41,9.41,0,0,1,1.43.76l24.47,15,.37.25q2.78,1.65,2.77,3.71t-2.71,3.71a4.65,4.65,0,0,0-.43.25l-24.47,15.29-.12.08a5.45,5.45,0,0,1-2.34.95,1.73,1.73,0,0,1-1.47-.74,3.36,3.36,0,0,1-.53-2,3.32,3.32,0,0,1,.58-1.92,6.71,6.71,0,0,1,2-1.71Z" transform="translate(-66.44 -182.94)"/></svg>