<svg id="Layer_1" data-name="Layer 1" xmlns="http://www.w3.org/2000/svg" viewBox="0 0 405.01 203.97"><defs><style>.cls-1{fill:#dc1f26;}.cls-2{fill:#fff;}</style></defs><path class="cls-1" d="M305.73,376.41a101.86,101.86,0,0,1,36.91-76.9,11.26,11.26,0,0,0-10.88-8.35H308.4a11.28,11.28,0,0,0-10.9,8.37l-17.89,67c-2.89,10.83-18.1,11.26-21.6.61l-22.42-68.25a11.28,11.28,0,0,0-10.72-7.75H205.32a11.28,11.28,0,0,0-10.71,7.75l-22.42,68.25c-3.5,10.65-18.72,10.22-21.61-.61l-17.89-67a11.28,11.28,0,0,0-10.89-8.37H98.44a11.28,11.28,0,0,0-10.81,14.5l45,150.87a11.27,11.27,0,0,0,10.8,8.05H173a11.27,11.27,0,0,0,10.68-7.66l20.77-61.32a11.28,11.28,0,0,1,21.36,0l20.76,61.32a11.28,11.28,0,0,0,10.68,7.66h29.52a11.29,11.29,0,0,0,10.8-8.05l13.63-45.69A102.12,102.12,0,0,1,305.73,376.41Z" transform="translate(-87.16 -275.88)"/><path class="cls-1" d="M488,425.2l-24-13.83a8.25,8.25,0,0,0-10.65,2.09,57.91,57.91,0,1,1-.06-71.25A8.32,8.32,0,0,0,464,344.37L488,330.56a8.39,8.39,0,0,0,2.61-12.15,101.74,101.74,0,0,0-147.93-18.9,11.2,11.2,0,0,1-.08,6.15L311.17,410.84A102,102,0,0,0,490.6,437.28,8.33,8.33,0,0,0,488,425.2Z" transform="translate(-87.16 -275.88)"/><path class="cls-2" d="M342.64,299.51a101.82,101.82,0,0,0-31.47,111.33l31.39-105.18A11.2,11.2,0,0,0,342.64,299.51Z" transform="translate(-87.16 -275.88)"/><path class="cls-2" d="M371.47,380,394,393.89A6.89,6.89,0,0,1,396,395.6a3.67,3.67,0,0,1,0,3.9,1.73,1.73,0,0,1-1.49.74,2.56,2.56,0,0,1-.95-.21,8.89,8.89,0,0,1-1.48-.82l-24.47-15.29a1.23,1.23,0,0,1-.31-.17c-1.89-1.15-2.83-2.42-2.83-3.79s.92-2.61,2.77-3.71l.37-.25,24.47-15a7.81,7.81,0,0,1,1.42-.76,2.88,2.88,0,0,1,1-.23,1.75,1.75,0,0,1,1.49.7,3,3,0,0,1,.54,1.9,3.32,3.32,0,0,1-.58,1.95,6.27,6.27,0,0,1-1.94,1.67Z" transform="translate(-87.16 -275.88)"/><path class="cls-2" d="M410.06,407.87a9.42,9.42,0,0,1-.91,2.95,1.77,1.77,0,0,1-1.32.91,1.87,1.87,0,0,1-1.61-.64,3.39,3.39,0,0,1-.9-2.71,8.81,8.81,0,0,1,.12-.95l12-57.43a12,12,0,0,1,1-3.05,1.74,1.74,0,0,1,1.31-.94,1.92,1.92,0,0,1,1.66.62,3.12,3.12,0,0,1,.9,1.88,4.59,4.59,0,0,1,0,.75,3.61,3.61,0,0,1-.13.8Z" transform="translate(-87.16 -275.88)"/><path class="cls-2" d="M455.62,380l-22.5-13.77a6.32,6.32,0,0,1-2-1.71,3.27,3.27,0,0,1-.59-1.91,3,3,0,0,1,.54-1.9,1.74,1.74,0,0,1,1.46-.7,2.84,2.84,0,0,1,1,.23A9,9,0,0,1,435,361l24.48,15,.36.25q2.78,1.65,2.78,3.71c0,1.35-.91,2.58-2.71,3.71a3.57,3.57,0,0,0-.43.25L435,399.21l-.12.08a5.58,5.58,0,0,1-2.34.95,1.73,1.73,0,0,1-1.46-.74,3.65,3.65,0,0,1,.05-3.9,6.58,6.58,0,0,1,2-1.71Z" transform="translate(-87.16 -275.88)"/></svg>